<svg width="20" height="12" viewBox="0 0 20 12" fill="none" xmlns="http://www.w3.org/2000/svg">
<path d="M0.454011 0.939485C0.735303 0.658278 1.11676 0.500305 1.51451 0.500305C1.91226 0.500305 2.29372 0.658278 2.57501 0.939485L10 8.36448L17.425 0.939485C17.7079 0.666248 18.0868 0.515056 18.4801 0.518473C18.8734 0.521891 19.2496 0.679645 19.5277 0.957757C19.8058 1.23587 19.9636 1.61209 19.967 2.00538C19.9704 2.39868 19.8192 2.77758 19.546 3.06048L11.0605 11.546C10.7792 11.8272 10.3978 11.9852 10 11.9852C9.60226 11.9852 9.2208 11.8272 8.93951 11.546L0.454011 3.06048C0.172805 2.77919 0.0148315 2.39773 0.0148315 1.99998C0.0148315 1.60224 0.172805 1.22078 0.454011 0.939485Z" fill="#363C41"/>
</svg>
