<svg width="24" height="24" viewBox="0 0 24 24" fill="none" xmlns="http://www.w3.org/2000/svg">
<path d="M11.605 7.05784C11.7364 7.07706 11.869 7.0868 12.0017 7.08696C12.6694 7.08518 13.3105 6.82877 13.7904 6.37154C14.2703 5.91431 14.5518 5.2918 14.5757 4.63461C14.5996 3.97743 14.3642 3.33666 13.9187 2.84675C13.4733 2.35684 12.8525 2.05588 12.1867 2.00701C11.5208 1.95814 10.8616 2.16516 10.3474 2.58463C9.83314 3.0041 9.50384 3.60342 9.4286 4.25684C9.35335 4.91026 9.53801 5.56698 9.9438 6.08922C10.3496 6.61146 10.945 6.95861 11.605 7.05784Z" fill="#86A150"/>
<path d="M13.8359 19.6924C13.6027 19.9431 13.3191 20.1433 13.003 20.2803C12.687 20.4172 12.3455 20.488 12.0003 20.488C11.655 20.488 11.3135 20.4172 10.9975 20.2803C10.6815 20.1433 10.3979 19.9431 10.1647 19.6924C9.73472 19.9841 9.38329 20.3744 9.14074 20.8298C8.89819 21.2851 8.7718 21.7917 8.77246 22.3059V22.6614C8.77246 22.7512 8.80868 22.8373 8.87315 22.9008C8.93762 22.9643 9.02505 22.9999 9.11621 22.9999H14.8843C14.9755 22.9999 15.0629 22.9643 15.1274 22.9008C15.1919 22.8373 15.2281 22.7512 15.2281 22.6614V22.3059C15.2288 21.7917 15.1024 21.2851 14.8598 20.8298C14.6173 20.3744 14.2659 19.9841 13.8359 19.6924Z" fill="#86A150"/>
<path d="M4.22669 19.8119C4.67903 19.8121 5.1152 19.6461 5.44996 19.3465C5.78472 19.0469 5.99402 18.6352 6.03698 18.1917C6.07994 17.7482 5.95347 17.3049 5.68228 16.9483C5.41109 16.5918 5.01465 16.3476 4.57044 16.2636V14.7337C4.57062 14.5834 4.63132 14.4394 4.73919 14.3332C4.84707 14.2269 4.99332 14.1671 5.14588 14.167H11.6562V16.2639C11.2118 16.3481 10.8154 16.5925 10.5441 16.9492C10.2729 17.3058 10.1464 17.7493 10.1894 18.1929C10.2323 18.6365 10.4416 19.0485 10.7764 19.3482C11.1112 19.648 11.5474 19.8141 11.9999 19.8141C12.4524 19.8141 12.8886 19.648 13.2234 19.3482C13.5582 19.0485 13.7675 18.6365 13.8105 18.1929C13.8534 17.7493 13.727 17.3058 13.4557 16.9492C13.1845 16.5925 12.788 16.3481 12.3437 16.2639V14.1656H18.8543C18.93 14.1657 19.0049 14.1805 19.0747 14.2091C19.1446 14.2377 19.208 14.2795 19.2615 14.3323C19.3149 14.385 19.3573 14.4476 19.3861 14.5165C19.415 14.5854 19.4298 14.6592 19.4297 14.7337V16.2639C18.9855 16.3481 18.5891 16.5924 18.3179 16.949C18.0468 17.3057 17.9203 17.749 17.9633 18.1926C18.0062 18.6361 18.2155 19.0479 18.5502 19.3477C18.885 19.6474 19.3211 19.8134 19.7735 19.8134C20.2259 19.8134 20.662 19.6474 20.9968 19.3477C21.3315 19.0479 21.5407 18.6361 21.5837 18.1926C21.6266 17.749 21.5002 17.3057 21.229 16.949C20.9579 16.5924 20.5615 16.3481 20.1172 16.2639V14.7337C20.1169 14.4039 19.9837 14.0878 19.7469 13.8546C19.5102 13.6214 19.1891 13.4902 18.8543 13.4899H12.3437V11.3337H15.5478C15.8612 11.3331 16.1617 11.2103 16.3833 10.992C16.605 10.7737 16.7297 10.4778 16.7303 10.1691V9.48183C16.7289 8.83075 16.5188 8.19673 16.1299 7.67023C15.741 7.14374 15.1932 6.75168 14.5646 6.55002C14.4879 6.64315 14.4064 6.73241 14.3206 6.81747C14.0166 7.11859 13.655 7.35741 13.2567 7.52011C12.8585 7.68281 12.4314 7.76618 12.0003 7.7654C11.8346 7.76465 11.6691 7.75221 11.5053 7.72816C10.6917 7.60524 9.9551 7.1845 9.44276 6.55002C8.81188 6.74887 8.26149 7.14 7.871 7.66696C7.48052 8.19393 7.27014 8.82946 7.27026 9.48183V10.1691C7.27026 10.4779 7.39485 10.7742 7.61661 10.9926C7.83837 11.211 8.13914 11.3337 8.45276 11.3337H11.6562V13.4885H5.14588C4.81104 13.4889 4.49002 13.62 4.25325 13.8532C4.01649 14.0864 3.88331 14.4026 3.88294 14.7323V16.2626C3.43873 16.3466 3.04232 16.5908 2.77113 16.9473C2.49994 17.3039 2.37346 17.7472 2.41642 18.1907C2.45939 18.6341 2.66869 19.0459 3.00345 19.3455C3.3382 19.6451 3.77436 19.811 4.22669 19.8109V19.8119Z" fill="#86A150"/>
<path d="M6.06345 19.6924C5.83023 19.9431 5.54659 20.1433 5.23058 20.2803C4.91457 20.4172 4.57308 20.488 4.22782 20.488C3.88256 20.488 3.54107 20.4172 3.22506 20.2803C2.90905 20.1433 2.62541 19.9431 2.39219 19.6924C1.96223 19.9841 1.61083 20.3744 1.36828 20.8298C1.12573 21.2851 0.999334 21.7917 1 22.3059V22.6614C1 22.7512 1.03622 22.8373 1.10069 22.9008C1.16516 22.9643 1.25258 22.9999 1.34375 22.9999H7.10845C7.19961 22.9999 7.28704 22.9643 7.35151 22.9008C7.41598 22.8373 7.4522 22.7512 7.4522 22.6614V22.3059C7.45208 21.7922 7.32571 21.2862 7.08388 20.8311C6.84204 20.376 6.49193 19.9853 6.06345 19.6924Z" fill="#86A150"/>
<path d="M21.6078 19.6924C21.3746 19.9431 21.091 20.1433 20.775 20.2803C20.459 20.4172 20.1175 20.488 19.7722 20.488C19.4269 20.488 19.0855 20.4172 18.7694 20.2803C18.4534 20.1433 18.1698 19.9431 17.9366 19.6924C17.5081 19.9853 17.158 20.376 16.9162 20.8311C16.6743 21.2862 16.548 21.7922 16.5479 22.3059V22.6614C16.5479 22.7512 16.5841 22.8373 16.6485 22.9008C16.713 22.9643 16.8004 22.9999 16.8916 22.9999H22.6563C22.7474 22.9999 22.8349 22.9643 22.8993 22.9008C22.9638 22.8373 23 22.7512 23 22.6614V22.3059C23.0007 21.7917 22.8743 21.2851 22.6317 20.8298C22.3892 20.3744 22.0378 19.9841 21.6078 19.6924Z" fill="#86A150"/>
</svg>
