<svg width="24" height="24" viewBox="0 0 24 24" fill="none" xmlns="http://www.w3.org/2000/svg">
<g clip-path="url(#clip0_7_203)">
<path d="M23.63 4.66665C23.168 3.87265 22.318 3.33331 21.3333 3.33331H12V4.66665H23.63ZM0 16.6666H24V18H0V16.6666ZM12 11.3333H24V12.6666H12V11.3333ZM12 8.66665H24V9.99998H12V8.66665ZM0 14H24V15.3333H0V14ZM2.66667 20.6666H21.3333C22.318 20.6666 23.168 20.1273 23.63 19.3333H0.37C0.832 20.1273 1.682 20.6666 2.66667 20.6666ZM12 5.99998H24V7.33331H12V5.99998Z" fill="#B22334"/>
<path d="M0.0453333 18.4527C0.0566667 18.5147 0.0693333 18.5767 0.0846667 18.6374C0.102 18.7047 0.123333 18.7694 0.146 18.8347C0.205333 19.0074 0.277333 19.174 0.368 19.33L0.37 19.3334H23.63L23.6313 19.3307C23.7208 19.1735 23.7949 19.0081 23.8527 18.8367C23.8966 18.7116 23.9305 18.5832 23.954 18.4527C23.9813 18.306 24 18.1554 24 18H0C0 18.1554 0.0186667 18.3054 0.0453333 18.4527ZM0 15.3334H24V16.6667H0V15.3334ZM0 12.6667V14H24V12.6667H12H0ZM12 10H24V11.3334H12V10ZM12 7.33335H24V8.66669H12V7.33335ZM0.0853333 5.36269C0.102 5.29469 0.125333 5.23002 0.146667 5.16469C0.123515 5.22982 0.103054 5.29587 0.0853333 5.36269ZM12 6.00002H24C24 5.84469 23.9813 5.69402 23.954 5.54669C23.9307 5.41609 23.8965 5.28765 23.852 5.16269C23.7942 4.99056 23.7199 4.82445 23.63 4.66669H12V6.00002Z" fill="#EEEEEE"/>
<path d="M12 3.33331H2.66667C1.95942 3.33331 1.28115 3.61426 0.781049 4.11436C0.280952 4.61446 0 5.29274 0 5.99998L0 12.6666H12V3.33331Z" fill="#3C3B6E"/>
<path d="M1.33398 5.15069L1.74598 5.45002L1.58865 5.93335L1.99998 5.63469L2.41198 5.93335L2.25465 5.45002L2.66665 5.15069H2.15732L1.99998 4.66669L1.84332 5.15069H1.33398ZM2.66732 6.48402L3.07932 6.78335L2.92198 7.26669L3.33332 6.96802L3.74532 7.26669L3.58798 6.78335L3.99998 6.48402H3.49065L3.33332 6.00002L3.17665 6.48402H2.66732ZM5.33399 6.48402L5.74599 6.78335L5.58865 7.26669L5.99998 6.96802L6.41199 7.26669L6.25465 6.78335L6.66665 6.48402H6.15732L5.99998 6.00002L5.84332 6.48402H5.33399ZM8.00065 6.48402L8.41265 6.78335L8.25532 7.26669L8.66665 6.96802L9.07865 7.26669L8.92132 6.78335L9.33332 6.48402H8.82399L8.66665 6.00002L8.50999 6.48402H8.00065ZM2.66732 9.15069L3.07932 9.45002L2.92198 9.93335L3.33332 9.63469L3.74532 9.93335L3.58798 9.45002L3.99998 9.15069H3.49065L3.33332 8.66669L3.17665 9.15069H2.66732ZM5.33399 9.15069L5.74599 9.45002L5.58865 9.93335L5.99998 9.63469L6.41199 9.93335L6.25465 9.45002L6.66665 9.15069H6.15732L5.99998 8.66669L5.84332 9.15069H5.33399ZM8.00065 9.15069L8.41265 9.45002L8.25532 9.93335L8.66665 9.63469L9.07865 9.93335L8.92132 9.45002L9.33332 9.15069H8.82399L8.66665 8.66669L8.50999 9.15069H8.00065ZM4.00065 5.15069L4.41265 5.45002L4.25532 5.93335L4.66665 5.63469L5.07865 5.93335L4.92132 5.45002L5.33332 5.15069H4.82398L4.66665 4.66669L4.50998 5.15069H4.00065ZM6.66732 5.15069L7.07932 5.45002L6.92199 5.93335L7.33332 5.63469L7.74532 5.93335L7.58799 5.45002L7.99999 5.15069H7.49065L7.33332 4.66669L7.17665 5.15069H6.66732ZM9.33399 5.15069L9.74599 5.45002L9.58865 5.93335L9.99999 5.63469L10.412 5.93335L10.2547 5.45002L10.6667 5.15069H10.1573L9.99999 4.66669L9.84332 5.15069H9.33399ZM1.33398 7.81735L1.74598 8.11669L1.58865 8.60002L1.99998 8.30135L2.41198 8.60002L2.25465 8.11669L2.66665 7.81735H2.15732L1.99998 7.33335L1.84332 7.81735H1.33398ZM4.25532 8.60002L4.66665 8.30135L5.07865 8.60002L4.92132 8.11669L5.33332 7.81735H4.82398L4.66665 7.33335L4.50998 7.81735H4.00065L4.41265 8.11669L4.25532 8.60002ZM6.66732 7.81735L7.07932 8.11669L6.92199 8.60002L7.33332 8.30135L7.74532 8.60002L7.58799 8.11669L7.99999 7.81735H7.49065L7.33332 7.33335L7.17665 7.81735H6.66732ZM9.33399 7.81735L9.74599 8.11669L9.58865 8.60002L9.99999 8.30135L10.412 8.60002L10.2547 8.11669L10.6667 7.81735H10.1573L9.99999 7.33335L9.84332 7.81735H9.33399ZM1.33398 10.484L1.74598 10.7834L1.58865 11.2667L1.99998 10.968L2.41198 11.2667L2.25465 10.7834L2.66665 10.484H2.15732L1.99998 10L1.84332 10.484H1.33398ZM4.25532 11.2667L4.66665 10.968L5.07865 11.2667L4.92132 10.7834L5.33332 10.484H4.82398L4.66665 10L4.50998 10.484H4.00065L4.41265 10.7834L4.25532 11.2667ZM6.66732 10.484L7.07932 10.7834L6.92199 11.2667L7.33332 10.968L7.74532 11.2667L7.58799 10.7834L7.99999 10.484H7.49065L7.33332 10L7.17665 10.484H6.66732ZM9.33399 10.484L9.74599 10.7834L9.58865 11.2667L9.99999 10.968L10.412 11.2667L10.2547 10.7834L10.6667 10.484H10.1573L9.99999 10L9.84332 10.484H9.33399Z" fill="white"/>
</g>
<defs>
<clipPath id="clip0_7_203">
<rect width="24" height="24" fill="white"/>
</clipPath>
</defs>
</svg>
