<svg width="24" height="24" viewBox="0 0 24 24" fill="none" xmlns="http://www.w3.org/2000/svg">
<path d="M1 16.3316V20.9989H3.76569V13.84H3.51734C2.84984 13.8405 2.20982 14.1032 1.73783 14.5704C1.26584 15.0375 1.00047 15.6709 1 16.3316Z" fill="#86A150"/>
<path d="M9.73281 14.6403L7.60399 13.2523C7.541 13.3334 7.46966 13.4079 7.39112 13.4744L7.37728 13.4855C7.30229 13.5481 7.22137 13.6035 7.13566 13.6507L7.12324 13.658C6.94273 13.7549 6.74386 13.8135 6.53923 13.8304C6.5332 13.8304 6.52752 13.8329 6.52148 13.8336L8.22455 16.1332L9.73281 14.6403Z" fill="#86A150"/>
<path d="M10.4733 12.1813C9.51506 12.1748 8.59648 11.802 7.90947 11.1408V12.3608C7.90879 12.4397 7.90167 12.5184 7.88818 12.5961L10.2916 14.1634L12.6688 12.6122C12.654 12.5292 12.6461 12.4452 12.6454 12.3608V11.4611C12.019 11.9273 11.2569 12.1799 10.4733 12.1813Z" fill="#86A150"/>
<path d="M13.7348 13.7838C13.6357 13.7567 13.5397 13.7194 13.4485 13.6725C13.4421 13.6693 13.436 13.665 13.4293 13.6615C13.3488 13.6181 13.2726 13.5676 13.2015 13.5102C13.1894 13.5004 13.1774 13.4916 13.166 13.4818C13.0907 13.4184 13.0219 13.3478 12.9606 13.271L12.9571 13.2671L10.8506 14.642L11.0425 14.832L12.0945 15.8731L12.3592 16.1349L14.0623 13.8371C14.0573 13.8371 14.0527 13.835 14.0474 13.8347C13.9473 13.8294 13.848 13.814 13.7511 13.7887C13.7472 13.7863 13.7405 13.7855 13.7348 13.7838Z" fill="#86A150"/>
<path d="M9.95102 18.4922L9.72998 20.9989H10.9551L10.7341 18.4922H9.95102Z" fill="#86A150"/>
<path d="M7.16117 7.81681C7.1814 8.61249 7.43349 9.3854 7.8871 10.0426C8.1659 10.4737 8.54763 10.8302 8.9986 11.0807C9.44957 11.3312 9.9559 11.468 10.4729 11.4789C10.9035 11.4739 11.3281 11.3779 11.7183 11.1973C12.1084 11.0168 12.4551 10.7559 12.7351 10.432C13.4135 9.66792 13.7818 8.68219 13.769 7.66505V6.27007C13.769 5.40279 13.421 4.57111 12.8014 3.95785C12.1818 3.34459 11.3415 2.99997 10.4653 2.99997C9.58907 2.99997 8.74875 3.34459 8.12917 3.95785C7.5096 4.57111 7.16153 5.40279 7.16153 6.27007V7.54913C7.17563 7.59456 7.18009 7.64235 7.17465 7.68957C7.16933 7.73734 7.16401 7.77317 7.15869 7.80618C7.15905 7.80864 7.16117 7.81295 7.16117 7.81681Z" fill="#86A150"/>
<path d="M8.92838 18.2109L8.62609 16.7293L8.43378 16.9197C8.36726 16.9856 8.27703 17.0226 8.18294 17.0226H8.15597C8.10497 17.0187 8.05542 17.004 8.01071 16.9794C7.966 16.9547 7.9272 16.9207 7.89696 16.8799L5.71031 13.925C5.69193 13.8991 5.67725 13.871 5.66667 13.8411H4.47559V21H9.01886L9.24026 18.4873C9.16523 18.4804 9.09444 18.4498 9.0383 18.4001C8.98216 18.3503 8.94363 18.284 8.92838 18.2109Z" fill="#86A150"/>
<path d="M17.074 13.84H16.8281V20.9989H19.5913V16.3316C19.5909 15.6709 19.3255 15.0375 18.8535 14.5704C18.3815 14.1032 17.7415 13.8405 17.074 13.84Z" fill="#86A150"/>
<path d="M10.7992 15.5826L10.2919 15.0807L9.48823 15.8762L9.22852 16.1332L9.56663 17.7902H11.1413L11.4588 16.2354L10.7992 15.5826Z" fill="#86A150"/>
<path d="M14.8784 13.9242L12.6868 16.8791C12.6565 16.9199 12.6177 16.9537 12.573 16.9782C12.5283 17.0028 12.4788 17.0176 12.4278 17.0214H12.4008C12.3068 17.0214 12.2165 16.9844 12.15 16.9185L12.0606 16.8299L11.7789 18.2098C11.7627 18.2862 11.7213 18.3551 11.6611 18.4056C11.601 18.4561 11.5256 18.4853 11.4468 18.4886L11.6682 20.9979H16.1181V13.839H14.9221C14.9116 13.8693 14.8969 13.8979 14.8784 13.9242Z" fill="#86A150"/>
<path d="M19.2437 5.33276C17.172 5.33276 15.4871 6.82637 15.4871 8.66168C15.4868 9.13775 15.6005 9.60708 15.8188 10.0313C15.7772 10.2237 15.7234 10.4135 15.6577 10.5992C15.5516 10.9016 15.4141 11.1922 15.2476 11.4666C15.2161 11.5184 15.1986 11.5774 15.1969 11.6379C15.1952 11.6983 15.2093 11.7583 15.2379 11.8117C15.2664 11.8652 15.3085 11.9106 15.3599 11.9433C15.4113 11.976 15.4704 11.9949 15.5314 11.9983C15.6198 12.0036 15.7088 12.006 15.7965 12.006C16.1123 12.006 16.4274 11.9741 16.7367 11.9109C17.0284 11.8519 17.3136 11.7651 17.5882 11.6514C17.6514 11.6792 17.7149 11.7044 17.7773 11.7265C18.2462 11.9037 18.744 11.9936 19.2459 11.992C21.0674 11.992 22.6211 10.8394 22.9394 9.25551C22.9804 9.05982 23.0007 8.8605 23.0001 8.66065C22.9979 6.82534 21.3137 5.33276 19.2437 5.33276ZM17.6084 9.04168C17.5341 9.04175 17.4614 9.01993 17.3996 8.97909C17.3377 8.93825 17.2895 8.88021 17.261 8.81224C17.2325 8.74427 17.2251 8.66938 17.2396 8.59721C17.254 8.52503 17.2898 8.4589 17.3424 8.40687C17.395 8.35483 17.4619 8.31935 17.5349 8.30501C17.6078 8.29067 17.6834 8.29808 17.752 8.32627C17.8207 8.35446 17.8794 8.40207 17.9206 8.46328C17.9619 8.5245 17.9839 8.5965 17.9838 8.67009C17.9801 8.76746 17.9394 8.85994 17.8698 8.92885C17.8002 8.99775 17.7068 9.03803 17.6084 9.04168ZM19.0986 9.04168C19.0243 9.04168 18.9516 9.0198 18.8898 8.97892C18.828 8.93804 18.7799 8.88005 18.7515 8.81207C18.723 8.74409 18.7156 8.66919 18.7301 8.59704C18.7446 8.52488 18.7805 8.45869 18.8331 8.40669C18.8856 8.3547 18.9526 8.31932 19.0255 8.30501C19.0984 8.2907 19.174 8.29807 19.2427 8.32627C19.3113 8.35447 19.37 8.40225 19.4112 8.46345C19.4525 8.52466 19.4744 8.59651 19.4744 8.67009C19.4706 8.76776 19.4297 8.86041 19.3597 8.92936C19.2897 8.99831 19.1959 9.03846 19.0972 9.04168H19.0986ZM20.5888 9.04168C20.5145 9.04168 20.4418 9.0198 20.38 8.97892C20.3182 8.93804 20.2701 8.88005 20.2416 8.81207C20.2132 8.74409 20.2058 8.66919 20.2203 8.59704C20.2348 8.52488 20.2706 8.45869 20.3232 8.40669C20.3758 8.3547 20.4428 8.31932 20.5157 8.30501C20.5886 8.2907 20.6642 8.29807 20.7328 8.32627C20.8015 8.35447 20.8601 8.40225 20.9014 8.46345C20.9426 8.52466 20.9646 8.59651 20.9645 8.67009C20.9608 8.76799 20.9196 8.86089 20.8493 8.92988C20.779 8.99886 20.6849 9.03881 20.586 9.04168H20.5888Z" fill="#86A150"/>
</svg>
