<svg width="64" height="64" viewBox="0 0 64 64" fill="none" xmlns="http://www.w3.org/2000/svg">
<path d="M39.3647 30.9634C39.3647 35.6891 42.1952 42.2348 47.5087 42.2348C52.8222 42.2348 55.6527 35.6891 55.6527 30.9634C55.6527 26.1689 52.9887 23.8379 47.5087 23.8379C42.0287 23.8379 39.3647 26.1689 39.3647 30.9634ZM53.8429 30.9634C53.8429 34.8289 51.5874 40.421 47.5087 40.421C43.43 40.421 41.1745 34.8289 41.1745 30.9634C41.1745 27.24 43.0685 25.6517 47.5087 25.6517C51.9488 25.6517 53.8429 27.24 53.8429 30.9634Z" fill="#363C41"/>
<path d="M46.2015 34.712C46.1494 34.6049 46.0768 34.5091 45.9878 34.4302C45.8988 34.3512 45.7951 34.2906 45.6827 34.2518C45.5704 34.213 45.4515 34.1967 45.3328 34.204C45.2142 34.2112 45.0981 34.2418 44.9913 34.294C44.8844 34.3462 44.7889 34.419 44.7101 34.5082C44.6313 34.5974 44.5708 34.7013 44.5321 34.8139C44.4934 34.9265 44.4772 35.0457 44.4844 35.1646C44.4916 35.2835 44.5222 35.3998 44.5742 35.5069C45.3979 37.2005 46.384 38.0597 47.5087 38.0597C48.6333 38.0597 49.6199 37.2005 50.4436 35.5064C50.5487 35.2901 50.5638 35.0409 50.4856 34.8135C50.4073 34.586 50.2421 34.3991 50.0263 34.2938C49.8105 34.1884 49.5618 34.1733 49.3349 34.2517C49.108 34.3301 48.9215 34.4957 48.8164 34.712C48.2662 35.8438 47.7682 36.2459 47.5087 36.2459C47.2491 36.2459 46.7517 35.8438 46.2015 34.712Z" fill="#363C41"/>
<path d="M16.4839 38.0597C17.6075 38.0597 18.5951 37.2005 19.4188 35.5064C19.4709 35.3993 19.5014 35.283 19.5086 35.1641C19.5158 35.0452 19.4995 34.9261 19.4608 34.8135C19.422 34.7009 19.3615 34.597 19.2827 34.5078C19.2039 34.4187 19.1084 34.3459 19.0015 34.2938C18.7858 34.1884 18.5371 34.1733 18.3101 34.2517C18.0832 34.3301 17.8967 34.4957 17.7916 34.712C17.2414 35.8438 16.7435 36.2459 16.4839 36.2459C16.2243 36.2459 15.7269 35.8438 15.1767 34.712C15.1246 34.6049 15.052 34.5091 14.963 34.4302C14.874 34.3512 14.7703 34.2906 14.658 34.2518C14.5456 34.213 14.4267 34.1967 14.308 34.204C14.1894 34.2112 14.0733 34.2418 13.9665 34.294C13.8596 34.3462 13.7641 34.419 13.6853 34.5082C13.6065 34.5974 13.5461 34.7013 13.5073 34.8139C13.4686 34.9265 13.4524 35.0457 13.4596 35.1646C13.4669 35.2835 13.4974 35.3998 13.5495 35.5069C14.3732 37.2005 15.3603 38.0597 16.4839 38.0597Z" fill="#363C41"/>
<path d="M3.02679 26.7025C3.61072 26.6956 4.18051 26.5215 4.66903 26.2009C4.68454 26.1914 4.69956 26.1812 4.71402 26.1703L11.7354 21.1306C18.5666 16.2277 26.9639 10.2007 31.9962 6.58665C37.2735 10.3764 46.205 16.7868 53.1881 21.7991L59.3026 26.1874C59.9567 26.6291 60.7591 26.7924 61.5332 26.6412C62.3074 26.49 62.9899 26.0368 63.4307 25.3813C63.8715 24.7258 64.0343 23.9216 63.8835 23.1457C63.7327 22.3698 63.2805 21.6858 62.6264 21.2441L33.6441 0.497014C33.1509 0.169792 32.5719 -0.00318498 31.9805 4.44063e-05C31.3891 0.0032738 30.8119 0.182564 30.3224 0.515152L1.37007 21.2409C1.04492 21.4551 0.765948 21.7325 0.549665 22.0567C0.333382 22.3808 0.184184 22.7452 0.1109 23.1282C0.0376169 23.5112 0.0417376 23.905 0.123019 24.2863C0.2043 24.6677 0.36109 25.0288 0.584108 25.3484C0.849607 25.7572 1.21117 26.0944 1.63706 26.3305C2.06295 26.5666 2.54016 26.6944 3.02679 26.7025ZM2.41922 22.7194L31.3488 2.00815C31.5438 1.88024 31.7719 1.81232 32.0049 1.81278C32.2221 1.81089 32.4351 1.87268 32.6177 1.99053L61.5974 22.7355C61.8538 22.9084 62.0315 23.1759 62.092 23.4797C62.1524 23.7834 62.0906 24.0987 61.9201 24.357C61.7508 24.6089 61.4905 24.785 61.1942 24.8482C60.8978 24.9114 60.5886 24.8568 60.3316 24.6959L54.2414 20.3247C47.0209 15.1425 37.7161 8.46313 32.5241 4.734C32.3702 4.62377 32.1858 4.5645 31.9967 4.5645C31.8075 4.5645 31.6231 4.62377 31.4693 4.734C26.5136 8.29315 17.7579 14.5802 10.6827 19.6588L3.68503 24.6783C3.56015 24.767 3.41833 24.8289 3.26846 24.8601C3.11859 24.8912 2.9639 24.891 2.81412 24.8595C2.66433 24.8279 2.52267 24.7656 2.39804 24.6766C2.2734 24.5875 2.16847 24.4736 2.08984 24.342C1.99752 24.2164 1.9325 24.0727 1.89897 23.9204C1.86544 23.768 1.86415 23.6103 1.89519 23.4574C1.92622 23.3046 1.98889 23.1599 2.07915 23.0328C2.16942 22.9057 2.28526 22.7989 2.41922 22.7194Z" fill="#363C41"/>
<path d="M0.971556 63.9999H63.0211C63.2476 63.9999 63.4659 63.9148 63.6328 63.7612C63.7997 63.6077 63.903 63.397 63.9223 63.1707C64.1491 60.7689 63.878 58.346 63.1262 56.0542C62.3744 53.7623 61.1581 51.6509 59.5535 49.8524C58.0268 48.1766 56.1664 46.8404 54.0925 45.9299C52.0185 45.0194 49.777 44.555 47.5128 44.5665H47.5087C45.1661 44.5635 42.8502 45.0652 40.718 46.0376C38.5858 47.0101 36.687 48.4305 35.1505 50.2027C33.0851 49.5955 30.8889 49.5975 28.8246 50.2084C27.0244 48.1893 24.7745 46.6241 22.2576 45.6398C23.8651 45.2134 25.4235 44.6192 26.9072 43.8669C28.0712 46.271 30.0883 47.4074 31.9963 47.4074C34.8625 47.4074 37.9862 44.8604 38.072 39.2672V39.2548C38.072 35.3282 35.9142 33.1656 31.9963 33.1656C29.3287 33.1656 27.4791 34.1705 26.567 36.0542C25.7702 33.7222 24.9852 31.227 24.3823 28.7006C24.3632 28.6198 24.3384 28.5452 24.3172 28.4638C24.311 28.4431 24.3053 28.4218 24.2996 28.4011C24.1744 27.953 24.0011 27.5198 23.7825 27.1092C23.7603 27.0682 23.738 27.0273 23.7148 26.9869C23.6106 26.8012 23.496 26.6216 23.3714 26.449C23.3668 26.4427 23.3621 26.4381 23.358 26.4319C23.2377 26.2716 23.1085 26.1181 22.9712 25.9722C22.9347 25.9328 22.8974 25.8939 22.8595 25.8556C22.7147 25.7075 22.5614 25.5681 22.4004 25.4379L22.3957 25.4343L22.3916 25.4307C22.3254 25.3752 22.2458 25.327 22.1744 25.2752C22.071 25.1995 21.9743 25.1197 21.8641 25.0513C21.7768 24.9995 21.678 24.9518 21.5854 24.901C21.4738 24.8404 21.3678 24.7761 21.2493 24.7207C21.1309 24.6652 21.0084 24.6217 20.8874 24.573C20.7793 24.5289 20.6764 24.4808 20.5637 24.4408C20.4158 24.389 20.2586 24.345 20.104 24.2994C20.0083 24.2709 19.9173 24.2377 19.8191 24.2118C19.6366 24.1636 19.4463 24.1242 19.2565 24.0848C19.1795 24.0688 19.106 24.048 19.028 24.033C18.8108 23.9921 18.5884 23.9605 18.3651 23.9294C18.3097 23.9221 18.2565 23.9107 18.2012 23.904C17.9426 23.8724 17.6763 23.8521 17.4105 23.833C17.3909 23.833 17.3707 23.8283 17.3511 23.8273C15.7102 23.7133 14.0627 23.9104 12.4947 24.4082C12.4678 24.4175 12.4388 24.4243 12.4125 24.4336C12.2573 24.4885 12.1141 24.5528 11.9678 24.615C11.8892 24.6481 11.8039 24.6772 11.7278 24.7129C11.6244 24.7621 11.5288 24.8202 11.429 24.8736C11.3292 24.9269 11.2133 24.9819 11.1156 25.042C10.9305 25.156 10.7537 25.2831 10.5866 25.4224C10.4232 25.5544 10.2678 25.6962 10.1213 25.8468C10.0846 25.8836 10.0489 25.9204 10.0137 25.9582C9.71701 26.2737 9.45889 26.6236 9.24483 27.0003C9.22828 27.0294 9.21225 27.0584 9.19622 27.0879C8.96912 27.5074 8.78994 27.9512 8.66208 28.411L8.6507 28.4514C8.62795 28.5348 8.6021 28.6156 8.58193 28.7012C7.49328 32.8964 6.16812 37.0263 4.61283 41.0711L4.25604 42.0557C4.18304 42.257 4.18354 42.4777 4.25747 42.6786C4.3314 42.8796 4.47397 43.0478 4.65988 43.1533C6.57236 44.2464 8.62094 45.0805 10.7521 45.6341C10.5892 45.6963 10.4253 45.7476 10.264 45.8149C3.41631 48.6631 -0.58537 55.4751 0.0697693 63.1702C0.0891854 63.3965 0.192591 63.6073 0.359557 63.7609C0.526523 63.9145 0.744904 63.9998 0.971556 63.9999ZM47.5087 46.3803C49.5222 46.3688 51.5157 46.7805 53.3606 47.589C55.2055 48.3974 56.8607 49.5846 58.2195 51.0739C60.9355 54.1179 62.3546 58.1066 62.1731 62.1861H43.2428V61.0201C43.2428 60.775 43.2319 60.5319 43.2169 60.2904C43.2128 60.2329 43.2081 60.1759 43.2035 60.1184C43.1864 59.9002 43.1632 59.6831 43.1337 59.4685C43.1306 59.4473 43.1285 59.4261 43.1254 59.4048C42.8608 57.5928 42.1606 55.8724 41.0852 54.3919C40.0097 52.9113 38.5913 51.715 36.952 50.906C38.3129 49.4728 39.9507 48.3324 41.7657 47.5544C43.5806 46.7763 45.5347 46.3768 47.5087 46.3803ZM35.1815 52.1279C35.8514 52.3687 36.4918 52.6847 37.0906 53.07C37.102 53.0768 37.1133 53.083 37.1242 53.0903C37.2793 53.1939 37.4319 53.3022 37.5818 53.4126C37.6516 53.4644 37.7219 53.5162 37.7886 53.5681C37.9234 53.6738 38.0555 53.783 38.1847 53.8956C38.2581 53.9604 38.33 54.0267 38.4019 54.0935C38.526 54.2086 38.6496 54.3241 38.767 54.4449C38.8212 54.5014 38.8704 54.5615 38.9247 54.619C39.151 54.8649 39.3641 55.1227 39.5633 55.3912C39.615 55.4616 39.6703 55.5301 39.7184 55.6016C39.8135 55.7379 39.9025 55.8783 39.9904 56.0161C40.0452 56.1042 40.0995 56.1923 40.1512 56.282C40.2329 56.423 40.312 56.5655 40.3864 56.7106C40.4382 56.8069 40.4816 56.9059 40.5281 57.0044C40.5964 57.1495 40.6662 57.2941 40.7272 57.4428C40.8192 57.6672 40.9035 57.8957 40.978 58.1289C41.0173 58.2502 41.0473 58.3746 41.0814 58.4979C41.1238 58.6498 41.1652 58.8016 41.1998 58.9565C41.2262 59.0747 41.2484 59.1939 41.2706 59.3136C41.3027 59.4908 41.3299 59.67 41.3524 59.851C41.3653 59.951 41.3787 60.051 41.388 60.1516C41.4144 60.4371 41.432 60.7247 41.432 61.017V62.183H22.5596V61.0201C22.5596 60.7278 22.5772 60.4402 22.6036 60.1547C22.6129 60.0541 22.6263 59.9541 22.6392 59.8541C22.6617 59.6731 22.6889 59.4939 22.7209 59.3167C22.7432 59.197 22.7654 59.0778 22.7918 58.9597C22.8264 58.8042 22.8678 58.6529 22.9102 58.501C22.9443 58.3777 22.9743 58.2533 23.0136 58.132C23.0881 57.8988 23.1724 57.6703 23.2644 57.4459C23.3254 57.2972 23.3952 57.1526 23.4635 57.0075C23.51 56.909 23.5555 56.8101 23.6052 56.7137C23.6796 56.5686 23.7603 56.4261 23.8404 56.2851C23.8921 56.1954 23.9464 56.1073 24.0012 56.0193C24.0891 55.8788 24.1781 55.7384 24.2732 55.6047C24.3249 55.5332 24.3766 55.4648 24.4283 55.3943C24.6275 55.1258 24.8406 54.868 25.0669 54.6221C25.1186 54.5646 25.1704 54.5045 25.2221 54.448C25.3394 54.3273 25.463 54.2117 25.5871 54.0966C25.659 54.0298 25.7309 53.9635 25.8043 53.8987C25.9336 53.7864 26.0656 53.6772 26.2004 53.5712C26.2686 53.5193 26.339 53.4675 26.4072 53.4157C26.5572 53.3053 26.7076 53.1955 26.8648 53.0934C26.8757 53.0861 26.8871 53.0799 26.8984 53.0732C28.1104 52.2847 29.4886 51.7892 30.9244 51.6257C32.3601 51.4622 33.8141 51.6352 35.1717 52.131L35.1815 52.1279ZM31.9963 34.9794C34.9044 34.9794 36.2602 36.3361 36.2622 39.248C36.1929 43.6078 34.0031 45.5952 31.9963 45.5952C30.5769 45.5952 29.0696 44.5961 28.2821 42.4771C28.2745 42.4169 28.2606 42.3577 28.2408 42.3003C28.0213 41.6624 27.8735 41.0019 27.8002 40.3311C27.7945 40.2793 27.7868 40.2238 27.7816 40.1689C27.7666 40.0134 27.7589 39.8621 27.7516 39.7082C27.7444 39.5543 27.733 39.4097 27.7304 39.2522C27.7304 36.3382 29.0857 34.9794 31.9963 34.9794ZM21.6687 27.2356C21.6785 27.246 21.6878 27.2569 21.6971 27.2678C21.7344 27.3097 21.7695 27.3548 21.8052 27.3989C21.887 27.4995 21.9633 27.6045 22.0338 27.7134C22.0751 27.7772 22.116 27.8414 22.1537 27.9088C22.2248 28.0356 22.2888 28.1662 22.3455 28.3C22.3574 28.328 22.3709 28.3519 22.3828 28.3824C22.3978 28.4192 22.4138 28.4555 22.4283 28.4933C22.5016 28.6865 22.563 28.884 22.6124 29.0846C22.6517 29.2443 22.6863 29.4096 22.7158 29.5816C22.7251 29.6397 22.7313 29.7013 22.739 29.7609C22.7525 29.8568 22.7628 29.9563 22.7721 30.0563H18.5523C18.2438 30.0559 17.9481 29.9329 17.73 29.7143C17.5119 29.4958 17.3892 29.1994 17.3888 28.8903C17.3888 28.6498 17.2935 28.4191 17.1238 28.249C16.9541 28.079 16.7239 27.9834 16.4839 27.9834C16.2439 27.9834 16.0138 28.079 15.8441 28.249C15.6744 28.4191 15.579 28.6498 15.579 28.8903C15.5786 29.1994 15.4559 29.4958 15.2378 29.7143C15.0197 29.9329 14.7241 30.0559 14.4156 30.0563H10.1973C10.2071 29.9527 10.2175 29.8542 10.2309 29.7568C10.2387 29.6987 10.2449 29.6391 10.2542 29.5826C10.2821 29.408 10.3172 29.2406 10.3576 29.0784C10.4057 28.885 10.4653 28.6947 10.536 28.5084C10.552 28.4654 10.5706 28.4249 10.5877 28.3835C10.6047 28.342 10.6234 28.3047 10.6394 28.2648C10.6911 28.1498 10.7428 28.0368 10.8038 27.93L10.8111 27.9171C10.8535 27.8419 10.8995 27.7699 10.946 27.6989C11.0118 27.5984 11.0827 27.5014 11.1585 27.4082C11.1989 27.3564 11.2382 27.3077 11.2811 27.26C11.2909 27.2486 11.3002 27.2377 11.3106 27.2268C11.4369 27.0869 11.5736 26.9568 11.7196 26.8376L11.7263 26.8314C11.7656 26.7988 11.8157 26.7708 11.8581 26.7392C12.2396 26.4675 12.6614 26.2577 13.1079 26.1173C13.1224 26.1126 13.1348 26.1064 13.1493 26.1017C13.1798 26.0919 13.2139 26.0846 13.245 26.0748C13.4078 26.023 13.5733 25.9753 13.7476 25.9333C13.8422 25.9105 13.943 25.8939 14.0407 25.8737C14.1566 25.8494 14.2703 25.8219 14.3898 25.8027C14.5501 25.7753 14.716 25.7551 14.8815 25.7343C14.943 25.7266 15.0025 25.7157 15.0646 25.7089C15.2631 25.6877 15.4653 25.6727 15.668 25.6607C15.6995 25.6607 15.7306 25.6545 15.7621 25.653C15.9882 25.6412 16.2151 25.6352 16.4426 25.6348H16.471C18.378 25.6348 20.2881 26.0385 21.255 26.848C21.403 26.966 21.5413 27.0956 21.6687 27.2356ZM14.4156 31.8701C15.1881 31.8706 15.9302 31.5688 16.4839 31.029C17.0377 31.5688 17.7798 31.8706 18.5523 31.8701H22.7789C22.4722 35.6697 20.2969 40.3482 16.4839 40.4208C12.7149 40.4208 10.5039 35.6453 10.19 31.8701H14.4156ZM6.22405 41.9428L6.31505 41.6914C7.16772 39.3429 8.03434 36.9471 8.8141 34.5161C9.82292 38.4225 12.4337 42.2345 16.501 42.2345C20.6842 42.1552 23.1806 38.3282 24.1538 34.528C24.7376 36.3496 25.3539 38.0955 25.9336 39.7072C25.9398 39.8543 25.9522 40.0015 25.9636 40.1482C25.9682 40.2062 25.9703 40.2663 25.9754 40.3233C25.9961 40.5396 26.0228 40.7545 26.0556 40.968C26.1107 41.3691 26.1874 41.767 26.2852 42.1599C23.3109 43.7024 20.0162 44.5217 16.6675 44.5515C16.6416 44.5515 16.6158 44.5515 16.5899 44.5515C12.9731 44.5497 9.41262 43.6537 6.22405 41.9428ZM10.9574 47.4878C12.5954 46.8095 14.341 46.4292 16.1122 46.3648C16.2466 46.3674 16.3816 46.3782 16.516 46.3782C16.6815 46.3782 16.8469 46.3663 17.0119 46.3627C18.8981 46.4196 20.7544 46.8512 22.4729 47.6327C24.1914 48.4141 25.738 49.5297 27.023 50.9148C25.3878 51.7253 23.9733 52.9216 22.901 54.4007C21.8287 55.8799 21.1306 57.5978 20.8667 59.4069C20.8636 59.4292 20.8615 59.4509 20.8584 59.4732C20.8288 59.6867 20.8057 59.9023 20.7891 60.1199C20.7845 60.1775 20.7798 60.2345 20.7757 60.2925C20.7607 60.5335 20.7498 60.7755 20.7498 61.0206V62.1866H1.82267C1.57809 55.6384 5.09785 49.927 10.9574 47.4903V47.4878Z" fill="#363C41"/>
<path d="M50.6113 30.9632C50.6113 30.6883 50.5023 30.4247 50.3084 30.2303C50.1144 30.036 49.8514 29.9268 49.5771 29.9268C49.3029 29.9268 49.0398 30.036 48.8459 30.2303C48.6519 30.4247 48.543 30.6883 48.543 30.9632C48.543 31.2381 48.6519 31.5017 48.8459 31.6961C49.0398 31.8905 49.3029 31.9996 49.5771 31.9996C49.8514 31.9996 50.1144 31.8905 50.3084 31.6961C50.5023 31.5017 50.6113 31.2381 50.6113 30.9632Z" fill="#363C41"/>
<path d="M46.4745 30.9632C46.4745 30.6883 46.3656 30.4247 46.1716 30.2303C45.9777 30.036 45.7146 29.9268 45.4403 29.9268C45.1661 29.9268 44.903 30.036 44.7091 30.2303C44.5151 30.4247 44.4062 30.6883 44.4062 30.9632C44.4062 31.2381 44.5151 31.5017 44.7091 31.6961C44.903 31.8905 45.1661 31.9996 45.4403 31.9996C45.7146 31.9996 45.9777 31.8905 46.1716 31.6961C46.3656 31.5017 46.4745 31.2381 46.4745 30.9632Z" fill="#363C41"/>
</svg>
