<svg width="20" height="20" viewBox="0 0 20 20" fill="none" xmlns="http://www.w3.org/2000/svg">
<path fill-rule="evenodd" clip-rule="evenodd" d="M13.6978 1.66666C14.2434 1.66666 14.7664 1.88451 15.1484 2.26951L17.7325 4.85359C18.1172 5.23832 18.3334 5.76013 18.3334 6.30422C18.3334 6.84832 18.1172 7.37012 17.7325 7.75485L8.29792 17.1865C7.71585 17.8579 6.89075 18.2704 5.9455 18.3353H1.66666V17.5019L1.66937 13.9894C1.74036 13.1107 2.14889 12.2936 2.77208 11.7445L12.2462 2.27051C12.6303 1.88401 13.1528 1.66666 13.6978 1.66666ZM5.88665 16.6707C6.33184 16.6392 6.74624 16.432 7.07899 16.0513L13.3806 9.74975L10.2519 6.62099L3.91342 12.958C3.57579 13.2566 3.36692 13.6744 3.33333 14.0565V16.6691L5.88665 16.6707ZM11.4306 5.44262L14.5591 8.57124L16.554 6.57634C16.6262 6.50417 16.6667 6.40629 16.6667 6.30422C16.6667 6.20216 16.6262 6.10427 16.554 6.0321L13.9676 3.4457C13.8962 3.37378 13.7991 3.33332 13.6978 3.33332C13.5965 3.33332 13.4993 3.37378 13.428 3.4457L11.4306 5.44262Z" fill="#3484F0"/>
</svg>
