<svg width="24" height="24" viewBox="0 0 24 24" fill="none" xmlns="http://www.w3.org/2000/svg">
<path d="M5.83412 4.96553C6.42488 4.96553 6.90378 4.48663 6.90378 3.89587C6.90378 3.30512 6.42488 2.82622 5.83412 2.82622C5.24337 2.82622 4.76447 3.30512 4.76447 3.89587C4.76447 4.48663 5.24337 4.96553 5.83412 4.96553Z" fill="#597591"/>
<path d="M16.4772 19.584C16.2815 19.5202 16.1033 19.4116 15.9568 19.2669L12.516 15.8258C12.2656 15.5747 12.1251 15.2346 12.1251 14.88C12.1251 14.5254 12.2656 14.1852 12.516 13.9342L12.8099 13.6407L12.534 13.3648C12.4575 13.2883 12.4145 13.1845 12.4145 13.0763C12.4145 12.9681 12.4575 12.8643 12.534 12.7878L13.7991 11.5226C13.963 11.3587 14.1576 11.2287 14.3718 11.1399C14.586 11.0512 14.8155 11.0056 15.0473 11.0056C15.2792 11.0056 15.5087 11.0512 15.7229 11.1399C15.937 11.2287 16.1316 11.3587 16.2956 11.5226L16.4792 11.7063V0.999939H1V21.6911H16.4772V19.584ZM2.75813 6.96895C2.75867 6.51375 2.91414 6.07229 3.19897 5.71722C3.4838 5.36214 3.88104 5.1146 4.32528 5.01533C4.11504 4.73517 3.98697 4.40199 3.95543 4.05314C3.9239 3.70428 3.99013 3.35354 4.14674 3.04022C4.30334 2.7269 4.54412 2.46339 4.84207 2.27922C5.14002 2.09505 5.48338 1.99749 5.83365 1.99749C6.18393 1.99749 6.52728 2.09505 6.82523 2.27922C7.12318 2.46339 7.36394 2.7269 7.52054 3.04022C7.67715 3.35354 7.7434 3.70428 7.71187 4.05314C7.68034 4.40199 7.55227 4.73517 7.34202 5.01533C7.78621 5.11454 8.18343 5.36193 8.46838 5.71682C8.75334 6.07172 8.90906 6.513 8.90997 6.96814V8.17043C8.90997 8.27866 8.86699 8.38247 8.79046 8.459C8.71392 8.53554 8.6101 8.57854 8.50186 8.57854H3.16624C3.058 8.57854 2.9542 8.53554 2.87767 8.459C2.80113 8.38247 2.75813 8.27866 2.75813 8.17043V6.96895ZM10.5359 20.1011H3.16624C3.058 20.1011 2.9542 20.0581 2.87767 19.9816C2.80113 19.905 2.75813 19.8012 2.75813 19.693C2.75813 19.5848 2.80113 19.481 2.87767 19.4044C2.9542 19.3279 3.058 19.2849 3.16624 19.2849H10.5359C10.6441 19.2849 10.7479 19.3279 10.8245 19.4044C10.901 19.481 10.944 19.5848 10.944 19.693C10.944 19.8012 10.901 19.905 10.8245 19.9816C10.7479 20.0581 10.6441 20.1011 10.5359 20.1011ZM10.5359 17.2586H3.16624C3.058 17.2586 2.9542 17.2156 2.87767 17.1391C2.80113 17.0626 2.75813 16.9588 2.75813 16.8505C2.75813 16.7423 2.80113 16.6385 2.87767 16.5619C2.9542 16.4854 3.058 16.4424 3.16624 16.4424H10.5359C10.6441 16.4424 10.7479 16.4854 10.8245 16.5619C10.901 16.6385 10.944 16.7423 10.944 16.8505C10.944 16.9588 10.901 17.0626 10.8245 17.1391C10.7479 17.2156 10.6441 17.2586 10.5359 17.2586ZM10.5359 14.4166H3.16624C3.058 14.4166 2.9542 14.3736 2.87767 14.297C2.80113 14.2205 2.75813 14.1167 2.75813 14.0084C2.75813 13.9002 2.80113 13.7964 2.87767 13.7199C2.9542 13.6433 3.058 13.6003 3.16624 13.6003H10.5359C10.6441 13.6003 10.7479 13.6433 10.8245 13.7199C10.901 13.7964 10.944 13.9002 10.944 14.0084C10.944 14.1167 10.901 14.2205 10.8245 14.297C10.7479 14.3736 10.6441 14.4166 10.5359 14.4166ZM10.5359 11.5745H3.16624C3.058 11.5745 2.9542 11.5315 2.87767 11.4549C2.80113 11.3784 2.75813 11.2746 2.75813 11.1664C2.75813 11.0581 2.80113 10.9543 2.87767 10.8778C2.9542 10.8013 3.058 10.7583 3.16624 10.7583H10.5359C10.6441 10.7583 10.7479 10.8013 10.8245 10.8778C10.901 10.9543 10.944 11.0581 10.944 11.1664C10.944 11.2746 10.901 11.3784 10.8245 11.4549C10.7479 11.5315 10.6441 11.5745 10.5359 11.5745Z" fill="#597591"/>
<path d="M18.6392 9.98937C18.6413 9.98366 18.6441 9.97876 18.6466 9.97345V2.65808H17.2933V11.9438L17.7255 11.5116C18.1478 11.0849 18.4612 10.5628 18.6392 9.98937Z" fill="#597591"/>
<path d="M8.09377 6.96893C8.09334 6.65409 7.96809 6.35227 7.74547 6.12965C7.52284 5.90702 7.22102 5.78176 6.90618 5.78133H4.7587C4.44444 5.78241 4.14342 5.90801 3.92158 6.13061C3.69974 6.35321 3.57519 6.65466 3.5752 6.96893V7.76311H8.09377V6.96893Z" fill="#597591"/>
<path d="M22.4882 9.29192C22.1608 8.96623 21.7177 8.78363 21.2559 8.78417C20.7942 8.7847 20.3515 8.96833 20.0249 9.29478C19.7525 9.58599 19.5386 9.92681 19.3947 10.2987C19.1759 10.9722 18.8018 11.5848 18.3026 12.0871L17.5795 12.8102L18.2761 13.5069L18.9728 14.2035L19.6967 13.4795C20.2012 12.9788 20.8163 12.6037 21.4924 12.3846C21.8615 12.2415 22.1995 12.0289 22.4882 11.7581C22.6504 11.5964 22.7791 11.4042 22.867 11.1926C22.9548 10.981 23 10.7541 23 10.525C23 10.2959 22.9548 10.0691 22.867 9.85748C22.7791 9.64588 22.6504 9.45369 22.4882 9.29192Z" fill="#597591"/>
<path d="M17.699 14.0852L16.7138 13.1L15.7168 12.1026C15.5386 11.925 15.2972 11.8253 15.0457 11.8253C14.7941 11.8253 14.5527 11.925 14.3745 12.1026L13.3995 13.0776L13.6754 13.3534L18.4311 18.1091L18.707 18.385L19.682 17.4105C19.8598 17.2323 19.9596 16.9908 19.9596 16.7391C19.9596 16.4874 19.8598 16.246 19.682 16.0678L17.699 14.0852Z" fill="#597591"/>
<path d="M13.0931 15.2487L16.5343 18.6898C16.6336 18.7846 16.7655 18.8375 16.9028 18.8375C17.04 18.8375 17.172 18.7846 17.2713 18.6898L17.5652 18.3964L13.3865 14.2178L13.0931 14.5116C12.9954 14.6094 12.9406 14.7419 12.9406 14.8801C12.9406 15.0183 12.9954 15.1509 13.0931 15.2487Z" fill="#597591"/>
<path d="M18.1422 18.9735L17.8484 19.2669C17.693 19.4197 17.5024 19.5318 17.2933 19.5934V22.0988C17.2933 22.207 17.2503 22.3109 17.1738 22.3874C17.0973 22.4639 16.9935 22.5069 16.8852 22.5069H3.16907V23.7921H18.6466V19.3575C18.5607 19.3473 18.4805 19.3094 18.4181 19.2494L18.1422 18.9735Z" fill="#597591"/>
</svg>
