<svg width="24" height="24" viewBox="0 0 24 24" fill="none" xmlns="http://www.w3.org/2000/svg">
<path d="M13.7323 12.992C13.7265 12.9905 13.7205 12.9894 13.7146 12.9885C13.6187 12.9822 13.5237 12.9669 13.4307 12.943C13.4288 12.9433 13.4268 12.9431 13.425 12.9425C13.4231 12.9419 13.4215 12.9408 13.4201 12.9394C13.3239 12.9137 13.2311 12.8772 13.1433 12.8307L13.122 12.8203C13.0459 12.7785 12.9735 12.7304 12.9056 12.6765C12.8914 12.666 12.8807 12.6555 12.8665 12.645C12.7933 12.5843 12.7267 12.5161 12.6678 12.4417V12.4382L10.624 13.7702L12.0859 15.2106L13.7323 12.992Z" fill="#597591"/>
<path d="M8.72459 17.2511L8.43363 15.8209L8.25622 15.9962C8.22318 16.0288 8.18388 16.0545 8.14062 16.072C8.09736 16.0895 8.05101 16.0983 8.00429 16.0978H7.97945C7.92821 16.0943 7.87839 16.0796 7.8336 16.0547C7.78881 16.0299 7.75016 15.9955 7.72042 15.9541L5.58437 13.0761C5.56669 13.0512 5.55237 13.0241 5.54178 12.9955H3.44831C2.79865 12.9965 2.17592 13.252 1.71688 13.7062C1.25783 14.1603 0.999999 14.776 1 15.4178V19.9572H8.81329L9.02974 17.5245C8.9564 17.516 8.88758 17.485 8.83288 17.436C8.77818 17.387 8.74032 17.3224 8.72459 17.2511Z" fill="#597591"/>
<path d="M12.3758 11.7861C12.3632 11.7072 12.3561 11.6277 12.3545 11.5478V10.1597C11.6871 10.6334 10.8915 10.8989 10.07 10.9221C9.24854 10.9452 8.43888 10.7247 7.74528 10.2893V11.5478C7.74467 11.6229 7.73874 11.6978 7.72754 11.7721L10.0658 13.2935L12.3758 11.7861Z" fill="#597591"/>
<path d="M9.95588 10.2227C12.1381 10.2227 13.9122 8.15457 13.9122 5.61315C13.9122 3.07172 12.1381 0.999969 9.95588 0.999969C7.77369 0.999969 5.996 3.07172 5.996 5.61315C5.996 8.15457 7.77369 10.2227 9.95588 10.2227Z" fill="#597591"/>
<path d="M7.23925 12.638C7.2357 12.645 7.22861 12.6485 7.22506 12.652C7.15336 12.7116 7.07613 12.7645 6.99442 12.8098C6.98732 12.8133 6.98377 12.8132 6.98023 12.8167C6.80622 12.9113 6.61398 12.9688 6.41605 12.9851C6.41187 12.9879 6.40685 12.989 6.40186 12.9885L8.04825 15.2106L9.50659 13.7702L7.44505 12.4276C7.38384 12.5045 7.31489 12.575 7.23925 12.638Z" fill="#597591"/>
<path d="M9.73926 17.5312L9.52637 19.957H10.7044L10.4915 17.5312H9.73926Z" fill="#597591"/>
<path d="M13.4792 18.4219C13.4373 18.1563 13.4159 17.8879 13.4153 17.6191C13.4154 17.3384 13.4391 17.0581 13.4863 16.7813C13.5256 16.5691 13.6295 16.3738 13.7843 16.2216C13.939 16.0694 14.1371 15.9675 14.352 15.9296L14.4656 15.9116L14.4053 15.824C14.2769 15.643 14.2099 15.4265 14.2137 15.2056C14.2175 14.9846 14.292 14.7706 14.4266 14.594C14.755 14.1577 15.1514 13.7755 15.601 13.4618C15.7817 13.3356 15.9972 13.2671 16.2184 13.2654C16.4427 13.2656 16.6612 13.3354 16.8429 13.4652L16.8536 13.4758L16.8571 13.4578C16.8844 13.3011 16.9475 13.1526 17.0416 13.0236C16.9245 13.0037 16.8057 12.9942 16.6868 12.9955H14.5933C14.5813 13.0234 14.567 13.0504 14.5507 13.0761L12.4111 15.9541C12.3814 15.9954 12.3427 16.0299 12.298 16.0547C12.2532 16.0796 12.2034 16.0943 12.1521 16.0978H12.1237C12.0775 16.0983 12.0317 16.0895 11.989 16.072C11.9464 16.0545 11.9077 16.0288 11.8753 15.9962L11.7973 15.9226L11.5241 17.2511C11.5086 17.326 11.4686 17.3936 11.4102 17.4437C11.3518 17.4938 11.2783 17.5234 11.2012 17.5281L11.4176 19.9572H14.2101C14.2178 19.7597 14.2831 19.5686 14.3982 19.4069L14.462 19.3157L14.3414 19.2948C14.1237 19.2559 13.9236 19.1509 13.7691 18.9944C13.6146 18.838 13.5132 18.6379 13.4792 18.4219Z" fill="#597591"/>
<path d="M10.0661 14.2094L9.03711 15.226L9.36355 16.8315H10.8893L11.1945 15.3276L10.3038 14.4443L10.0661 14.2094Z" fill="#597591"/>
<path d="M22.9419 16.9129C22.9305 16.8404 22.8964 16.7734 22.8444 16.721C22.7924 16.6687 22.7251 16.6338 22.652 16.6212L22.0339 16.5162C21.9702 16.3106 21.8879 16.1111 21.788 15.9202L22.1364 15.4214C22.1782 15.3615 22.2 15.2903 22.199 15.2175C22.1979 15.1448 22.1739 15.0742 22.1304 15.0156C21.8472 14.6355 21.5039 14.3029 21.1138 14.0305C21.0534 13.9881 20.981 13.9653 20.9068 13.9657C20.8327 13.966 20.7605 13.9893 20.7004 14.0322L20.2392 14.3631C20.0542 14.2667 19.861 14.1864 19.6619 14.1233L19.5675 13.5757C19.5551 13.5035 19.52 13.437 19.4674 13.3854C19.4147 13.3339 19.3469 13.2999 19.2737 13.2884C18.8005 13.2129 18.318 13.2149 17.8455 13.2944C17.7738 13.3071 17.7077 13.3413 17.6563 13.3924C17.605 13.4435 17.5708 13.509 17.5585 13.58L17.4637 14.1233C17.2645 14.1865 17.0712 14.2668 16.8861 14.3631L16.4276 14.0369C16.3674 13.9944 16.2953 13.9715 16.2213 13.9715C16.1473 13.9715 16.0751 13.9944 16.015 14.0369C15.6253 14.3095 15.2812 14.6406 14.9952 15.0183C14.9506 15.0772 14.926 15.1484 14.9247 15.222C14.9234 15.2955 14.9456 15.3677 14.9881 15.4281L15.3355 15.922C15.2357 16.113 15.1534 16.3124 15.0896 16.5179L14.4761 16.6231C14.4044 16.6355 14.3382 16.6694 14.2867 16.7202C14.2352 16.771 14.2007 16.8363 14.188 16.9071C14.1459 17.1433 14.125 17.3827 14.1255 17.6225C14.126 17.8549 14.1448 18.0868 14.1819 18.3163C14.1932 18.3884 14.227 18.4551 14.2786 18.5073C14.3302 18.5595 14.397 18.5945 14.4697 18.6074L15.0917 18.718C15.1556 18.9219 15.2371 19.12 15.3355 19.31L14.9838 19.8088C14.9412 19.8692 14.9189 19.9413 14.9201 20.0149C14.9213 20.0885 14.946 20.1599 14.9906 20.2189C15.2767 20.5964 15.6206 20.9275 16.01 21.2004C16.0703 21.243 16.1425 21.2661 16.2167 21.2661C16.2908 21.2661 16.3631 21.243 16.4234 21.2004L16.8846 20.8709C17.0699 20.9688 17.2637 21.0502 17.4637 21.1139L17.5585 21.6572C17.571 21.7296 17.6062 21.7963 17.6592 21.8479C17.7121 21.8995 17.7802 21.9333 17.8537 21.9446C18.0906 21.9809 18.33 21.9995 18.5697 22C18.8052 21.9995 19.0404 21.9809 19.273 21.9442C19.3462 21.9328 19.414 21.899 19.4668 21.8475C19.5195 21.796 19.5546 21.7294 19.5671 21.6572L19.6619 21.1139C19.8623 21.0503 20.0564 20.9687 20.242 20.8705L20.7079 21.2012C20.7676 21.2435 20.839 21.2663 20.9124 21.2668C20.9858 21.2672 21.0575 21.2451 21.1177 21.2036C21.51 20.9342 21.8544 20.6024 22.1371 20.222C22.1808 20.1631 22.2048 20.0925 22.2057 20.0195C22.2067 19.9466 22.1846 19.8751 22.1425 19.8151L21.7898 19.3118C21.8881 19.1214 21.9698 18.9231 22.0339 18.719L22.6555 18.6086C22.7283 18.5958 22.7952 18.5607 22.8468 18.5085C22.8985 18.4563 22.9323 18.3895 22.9437 18.3173C22.9805 18.0878 22.9992 17.8559 22.9997 17.6236C22.999 17.3856 22.9797 17.1479 22.9419 16.9129ZM20.2885 17.8882C20.2446 18.161 20.1351 18.4195 19.9692 18.6418C19.8576 18.7912 19.7219 18.9216 19.5675 19.0275C19.3509 19.1782 19.1022 19.2779 18.8404 19.3188C18.7488 19.3334 18.6561 19.3407 18.5633 19.3409C18.4692 19.3408 18.3753 19.3335 18.2823 19.3191C18.0214 19.2768 17.7735 19.1772 17.5567 19.0278C17.4024 18.9202 17.2663 18.7892 17.1532 18.6398C16.9873 18.4182 16.8778 18.1604 16.8339 17.8882C16.8194 17.7979 16.812 17.7066 16.8119 17.6152C16.8116 17.5195 16.8199 17.4239 16.8367 17.3297C16.8818 17.0607 16.9913 16.8064 17.1561 16.5877C17.2687 16.4394 17.404 16.3093 17.557 16.2021C17.773 16.0504 18.0216 15.9501 18.2834 15.909C18.4686 15.8796 18.6574 15.8796 18.8426 15.909C19.1048 15.9502 19.3538 16.0506 19.5703 16.2024C19.7601 16.335 19.9214 16.5035 20.0448 16.6981C20.1683 16.8927 20.2515 17.1095 20.2896 17.336C20.3042 17.4288 20.3117 17.5227 20.3119 17.6166C20.3111 17.7076 20.3033 17.7984 20.2885 17.8882Z" fill="#597591"/>
</svg>
