<svg width="24" height="24" viewBox="0 0 24 24" fill="none" xmlns="http://www.w3.org/2000/svg">
<path d="M3.00273 13.0737H1.08664C1.06367 13.0737 1.04163 13.0829 1.02538 13.0991C1.00914 13.1154 1 13.1375 1 13.1605V19.4475C1 19.4705 1.00914 19.4926 1.02538 19.5089C1.04163 19.5252 1.06367 19.5343 1.08664 19.5343H3.00273C3.02567 19.5342 3.04764 19.525 3.06386 19.5088C3.08008 19.4925 3.08923 19.4705 3.08936 19.4475V18.65V18.6468V18.6436V13.1605C3.08923 13.1375 3.08008 13.1155 3.06386 13.0993C3.04764 13.083 3.02567 13.0738 3.00273 13.0737Z" fill="white"/>
<path d="M16.8603 15.6085C16.8202 15.5938 16.7776 15.5872 16.735 15.5891C16.6924 15.591 16.6505 15.6013 16.6119 15.6196C16.5933 15.6284 16.574 15.6358 16.5543 15.6417L11.9991 17.0709C11.9816 17.0783 11.9627 17.0811 11.9447 17.088L11.8171 17.1277H11.8106C11.7158 17.1517 11.6186 17.1644 11.5208 17.1656H8.7895C8.62141 17.1658 8.46026 17.2328 8.3414 17.3519C8.22254 17.471 8.15566 17.6325 8.15541 17.801V17.9774C8.15541 18.0998 8.10686 18.2173 8.02043 18.3039C7.93401 18.3905 7.81681 18.4391 7.69459 18.4391C7.57238 18.4391 7.45516 18.3905 7.36874 18.3039C7.28232 18.2173 7.23377 18.0998 7.23377 17.9774V17.801C7.23426 17.3877 7.39832 16.9914 7.68997 16.6992C7.98162 16.4069 8.37705 16.2425 8.7895 16.242H11.5208C11.5523 16.2403 11.5833 16.2339 11.6129 16.2231L11.659 16.2092C11.7134 16.1865 11.7602 16.1486 11.7937 16.1001C11.8273 16.0516 11.8463 15.9944 11.8484 15.9354C11.8502 15.8945 11.8435 15.8537 11.8288 15.8156C11.814 15.7774 11.7915 15.7427 11.7627 15.7137C11.7256 15.6745 11.6809 15.6432 11.6315 15.6216C11.582 15.6 11.5287 15.5886 11.4747 15.5882H8.93189C8.87795 15.5883 8.82442 15.5788 8.77384 15.56L6.56651 14.7514C6.10534 14.5822 5.61802 14.4958 5.12691 14.4961H4.01172V18.1842H4.52093C4.76293 18.1836 5.00314 18.2256 5.23058 18.3084L9.86829 19.9634C9.95442 19.9939 10.0461 20.0056 10.1371 19.9976C10.2281 19.9897 10.3164 19.9623 10.3959 19.9173L16.8548 16.2305C16.9431 16.1949 17.014 16.1259 17.052 16.0384C17.0543 16.0319 17.0575 16.0254 17.0603 16.019C17.0861 15.9382 17.0798 15.8506 17.0427 15.7744C17.0056 15.6982 16.9406 15.6392 16.8612 15.6099L16.8603 15.6085Z" fill="white"/>
<path d="M15.3911 7.30536L16.327 6.53745C16.4094 6.47001 16.5124 6.43314 16.6187 6.43314C16.7251 6.43314 16.8281 6.47001 16.9104 6.53745L17.8468 7.30536V4H15.3911V7.30536Z" fill="white"/>
<path d="M18.767 8.28016C18.767 8.36756 18.7422 8.45315 18.6956 8.527C18.6489 8.60085 18.5823 8.65991 18.5035 8.69735C18.4247 8.73478 18.3369 8.74905 18.2503 8.73847C18.1638 8.72788 18.082 8.69289 18.0144 8.63757L16.6172 7.49146L15.2205 8.63757C15.153 8.69289 15.0712 8.72788 14.9846 8.73847C14.898 8.74905 14.8102 8.73478 14.7314 8.69735C14.6526 8.65991 14.586 8.60085 14.5394 8.527C14.4928 8.45315 14.468 8.36756 14.468 8.28016V4H10.2354V12.4264H23.0001V4H18.767V8.28016Z" fill="white"/>
</svg>
